<svg width="49" height="41" viewBox="0 0 49 41" fill="none" xmlns="http://www.w3.org/2000/svg">
<path d="M10 23.6V17.4C10 11.5549 10 8.63165 11.8231 6.8166C13.6462 5.00155 16.5784 5 22.4444 5H25.5556C31.4216 5 34.3553 5 36.1769 6.8166C37.1942 7.82875 37.6438 9.185 37.8413 11.2M38 17.4V23.6C38 29.445 38 32.3683 36.1769 34.1834C34.3538 35.9984 31.4216 36 25.5556 36H22.4444C16.5784 36 13.6447 36 11.8231 34.1834C10.8058 33.1712 10.3562 31.815 10.1587 29.8M17.7778 23.6H25.5556M17.7778 17.4H19.3333M30.2222 17.4H24" stroke="#0088FF" stroke-width="2.2" stroke-linecap="round"/>
<path d="M39.8818 41H30.5636C29.9463 41 29.4455 40.4991 29.4455 39.8818C29.4455 39.2645 29.9463 38.7636 30.5636 38.7636H39.8818C41.3203 38.7636 42.4909 37.593 42.4909 36.1545V26.8364C42.4909 26.219 42.9918 25.7182 43.6091 25.7182C44.2264 25.7182 44.7273 26.219 44.7273 26.8364V36.1545C44.7273 38.8277 42.5549 41 39.8818 41ZM19.0091 39.8818C19.0091 39.2645 18.5082 38.7636 17.8909 38.7636H8.57273C7.13422 38.7636 5.96364 37.593 5.96364 36.1545V26.8364C5.96364 26.219 5.46278 25.7182 4.84545 25.7182C4.22813 25.7182 3.72727 26.219 3.72727 26.8364V36.1545C3.72727 38.8277 5.8996 41 8.57273 41H17.8909C18.5082 41 19.0091 40.4991 19.0091 39.8818ZM44.7273 14.1636V4.84545C44.7273 2.17233 42.5549 0 39.8818 0H30.5636C29.9463 0 29.4455 0.500856 29.4455 1.11818C29.4455 1.73551 29.9463 2.23636 30.5636 2.23636H39.8818C41.3203 2.23636 42.4909 3.40695 42.4909 4.84545V14.1636C42.4909 14.781 42.9918 15.2818 43.6091 15.2818C44.2264 15.2818 44.7273 14.781 44.7273 14.1636ZM5.96364 14.1636V4.84545C5.96364 3.40695 7.13422 2.23636 8.57273 2.23636H17.8909C18.5082 2.23636 19.0091 1.73551 19.0091 1.11818C19.0091 0.500856 18.5082 0 17.8909 0H8.57273C5.8996 0 3.72727 2.17233 3.72727 4.84545V14.1636C3.72727 14.781 4.22813 15.2818 4.84545 15.2818C5.46278 15.2818 5.96364 14.781 5.96364 14.1636ZM48.4545 20.5C48.4545 19.8827 47.9537 19.3818 47.3364 19.3818H1.11818C0.500856 19.3818 0 19.8827 0 20.5C0 21.1173 0.500856 21.6182 1.11818 21.6182H47.3364C47.9537 21.6182 48.4545 21.1173 48.4545 20.5Z" fill="black"/>
</svg>
