<svg width="47" height="49" viewBox="0 0 47 49" fill="none" xmlns="http://www.w3.org/2000/svg">
<path d="M39.7837 4.84613C35.8682 1.29429 30.5571 -0.360914 24.4323 0.0657942C10.1798 1.05447 4.1435 12.4942 4.1435 16.8775V23.7436L0 32.8992L4.30467 35.136V42.6603C4.31646 44.6101 5.27764 48.3861 8.8393 48.7122L8.89433 48.7161L19.2511 48.6925L19.3297 48.6886C22.628 48.4527 28.9613 46.1254 29.3151 38.9941L26.9956 38.8801C26.6654 45.5554 19.8136 46.3137 19.2002 46.3691L9.00043 46.3946C6.69676 46.1371 6.62798 42.7878 6.62596 42.6541V33.7264L3.023 31.8532L6.46872 24.2464L6.46675 16.8772C6.46675 14.1823 11.1979 3.31056 24.5918 2.38066C30.07 2.0013 34.7875 3.44798 38.2233 6.56542C41.8184 9.82636 43.9708 14.923 44.1298 20.5487C44.401 30.1999 36.9789 35.4794 36.9044 35.5302L36.4012 35.8762L36.4032 48.3458H38.7265V37.0632C40.5683 35.6028 46.7188 29.9928 46.4516 20.4815C46.2766 14.2288 43.8452 8.52863 39.7842 4.84525L39.7837 4.84613Z" fill="black"/>
<path d="M33.3021 26.2643L32.9661 26.264L32.8389 26.5751C32.6174 27.1169 32.0908 27.5005 31.4689 27.5183L31.134 27.5279L31.0155 27.8412L29.6946 31.3341L29.5765 31.6465L29.8198 31.8752C30.1187 32.1562 30.305 32.5497 30.305 32.9871C30.305 33.8333 29.6208 34.5176 28.7746 34.5176C27.9283 34.5176 27.2441 33.8333 27.2441 32.9871C27.2441 32.1605 27.9024 31.4891 28.7298 31.4623L29.0631 31.4515L29.1812 31.1396L30.5041 27.6468L30.6229 27.3329L30.3774 27.104C30.1837 26.9234 30.0401 26.6898 29.9623 26.4221L29.8705 26.1061L29.544 26.0654L23.9973 25.3735L23.9241 25.3644L23.8513 25.3768L19.6488 26.0943L19.3189 26.1506L19.2452 26.4771C19.0909 27.1612 18.4828 27.6694 17.7556 27.6694C16.9097 27.6694 16.2251 26.9835 16.2251 26.1389C16.2251 25.9153 16.2772 25.701 16.3684 25.5019L16.5075 25.1981L16.28 24.9533L12.5945 20.9887L12.3664 20.7433L12.0527 20.861C11.8793 20.926 11.703 20.9628 11.5227 20.9628C10.6764 20.9628 9.99219 20.2785 9.99219 19.4323C9.99219 18.6901 10.5214 18.0712 11.2266 17.9316L11.5022 17.8771L11.5989 17.6134L13.5881 12.1925L13.7114 11.8565L13.4331 11.6314C13.0792 11.3453 12.8561 10.922 12.8561 10.4438C12.8561 9.59761 13.5403 8.91335 14.3865 8.91335C14.8917 8.91335 15.3356 9.15953 15.617 9.5427L15.8547 9.86639L16.222 9.7041L22.0993 7.10752L22.3973 6.97589V6.65016C22.3973 6.62062 22.3953 6.59532 22.3933 6.57633C22.392 6.56451 22.3906 6.55346 22.3895 6.5458C22.4001 5.70874 23.0803 5.03516 23.9199 5.03516C24.6923 5.03516 25.3275 5.61108 25.4272 6.36393L25.4705 6.69102L25.7882 6.77984L31.1327 8.27372L31.4488 8.36208L31.6556 8.10717C31.9396 7.75708 32.3611 7.53542 32.8358 7.53542C33.6817 7.53542 34.3663 8.22133 34.3663 9.06591C34.3663 9.24877 34.3293 9.42747 34.264 9.60328L34.1531 9.90157L34.3764 10.1283L36.5366 12.3219L36.7717 12.5607L37.0819 12.434C37.2617 12.3606 37.4532 12.3197 37.6555 12.3197C38.5043 12.3197 39.1879 13.0027 39.1879 13.8502C39.1879 14.3077 38.9822 14.7159 38.6548 14.9997L38.4023 15.2187L38.508 15.5357L39.5753 18.7357L39.681 19.0527L40.0143 19.0763C40.8121 19.1328 41.4366 19.7875 41.4366 20.5923C41.4366 21.4301 40.7658 22.1092 39.9312 22.1226C39.927 22.122 39.9225 22.1214 39.9178 22.1209C39.9012 22.119 39.8766 22.1169 39.8472 22.1169H39.5233L39.3908 22.4125L37.6639 26.2679L33.3021 26.2643ZM16.6838 24.5848L16.9119 24.8302L17.2256 24.7126C17.3985 24.6477 17.5768 24.6107 17.7576 24.6107C18.3018 24.6107 18.7763 24.8955 19.0473 25.3303L19.2249 25.6153L19.5559 25.5587L23.2237 24.9317L23.7249 24.846L23.6308 24.3463L22.3846 17.7283L22.3284 17.4298L22.0376 17.3421C21.74 17.2524 21.488 17.0836 21.2977 16.8535L21.0846 16.5958L20.765 16.6944L13.4058 18.9646L13.0556 19.0727L13.0532 19.4391C13.0517 19.6624 13.0005 19.8754 12.9105 20.0703L12.77 20.3747L12.9983 20.6202L16.6838 24.5848ZM16.1815 10.3228L15.9352 10.4316L15.8905 10.6972C15.7781 11.3658 15.2379 11.8793 14.558 11.9517L14.2487 11.9847L14.1416 12.2767L12.1956 17.5798L12.0634 17.9401L12.3772 18.161C12.463 18.2213 12.5407 18.2857 12.6083 18.3533L12.8213 18.5663L13.1091 18.4775L20.6057 16.166L20.9251 16.0675L20.9562 15.7347C21.0153 15.1023 21.4584 14.5845 22.0532 14.4159L22.347 14.3326L22.4071 14.0332L23.5215 8.48048L23.5981 8.09877L23.2469 7.93093C23.1161 7.86844 22.9959 7.78666 22.8878 7.68743L22.6469 7.46626L22.3477 7.59844L16.1815 10.3228ZM35.9538 14.7005L36.2393 14.5098L36.1638 14.1749C36.1399 14.0687 36.1274 13.9624 36.1288 13.8569L36.1288 13.8569V13.8503C36.1288 13.6371 36.1721 13.4346 36.2498 13.2528L36.3816 12.9443L36.1462 12.7053L34.0332 10.5609L33.7895 10.3136L33.4727 10.4554C33.3647 10.5038 33.2606 10.5402 33.1566 10.5626L32.8176 10.6359L32.7675 10.9792L31.997 16.2627L31.9525 16.5677L32.2051 16.7445C32.2427 16.7709 32.2777 16.7891 32.2911 16.7962L32.2916 16.7964L32.3011 16.8014L32.303 16.8023L32.5691 16.962L32.8325 16.786L35.9538 14.7005ZM32.2337 10.8424L32.2801 10.5242L32.0098 10.35C31.6336 10.1075 31.3755 9.7004 31.3263 9.22679L31.2912 8.88858L30.9638 8.79691L25.6626 7.3129L25.3378 7.22195L25.1318 7.48916C24.9515 7.7231 24.7084 7.9019 24.4267 8.00073L24.158 8.09499L24.102 8.37422L22.9698 14.0195L22.8983 14.3761L23.2154 14.554C23.6179 14.7797 23.9024 15.1743 23.9764 15.6459L24.028 15.9755L24.3522 16.0543L29.6709 17.3477L29.9956 17.4266L30.1927 17.1569C30.4075 16.8631 30.7167 16.6525 31.0778 16.5685L31.41 16.4912L31.4593 16.1536L32.2337 10.8424ZM23.1991 17.2149L22.8796 17.3889L22.9469 17.7465L24.2185 24.5003L24.286 24.8587L24.6478 24.9039L29.5874 25.5211L29.9244 25.5632L30.0878 25.2655C30.2579 24.9552 30.5228 24.7124 30.8419 24.5813L31.1515 24.4541L31.1518 24.1193L31.1558 19.9365L31.1561 19.6005L30.8451 19.4733C30.3578 19.2739 30.0006 18.8302 29.9175 18.293L29.8664 17.9626L29.5415 17.8836L24.2227 16.5902L23.8978 16.5112L23.7007 16.7814C23.5722 16.9575 23.402 17.1043 23.1991 17.2149ZM36.9873 25.7195H37.3108L37.4434 25.4244L38.896 22.191L39.0331 21.8856L38.8031 21.6424C38.5415 21.366 38.3816 20.9995 38.3816 20.5925C38.3816 20.1339 38.5863 19.7261 38.9128 19.443L39.1654 19.224L39.0596 18.907L37.9923 15.707L37.8862 15.3889L37.5516 15.3663C37.2842 15.3483 37.0419 15.2663 36.8378 15.1345L36.5619 14.9565L36.2889 15.1388L33.14 17.242L32.8627 17.4272L32.9272 17.7544C32.9468 17.8539 32.9571 17.9533 32.9571 18.0568C32.9571 18.6921 32.5672 19.2396 32.01 19.4699L31.701 19.5977V19.932V24.1187V24.4538L32.0109 24.5812C32.3854 24.7351 32.6857 25.0344 32.8391 25.4089L32.9662 25.7195H33.3018H36.9873Z" fill="black" stroke="#0088FF"/>
</svg>
