<svg width="36" height="46" viewBox="0 0 36 46" fill="none" xmlns="http://www.w3.org/2000/svg">
<mask id="path-1-outside-1_5384_12318" maskUnits="userSpaceOnUse" x="0" y="2" width="35" height="44" fill="black">
<rect fill="white" y="2" width="35" height="44"/>
<path fill-rule="evenodd" clip-rule="evenodd" d="M1.91467 6.46133V41.6667C1.91467 43.0241 3.02926 44.1282 4.39407 44.1337L30.958 44.2188C32.347 44.2225 33.456 43.1295 33.456 41.7518V6.36887C33.456 4.9911 32.347 3.89631 30.9561 3.90189L4.3922 3.99436C3.0274 3.99806 1.91467 5.10397 1.91467 6.46133ZM9.59433 36.2561L11.0674 38.0203C11.2522 38.2404 11.5715 38.233 11.7619 38.0296L13.8101 35.9731C13.9333 36.7628 13.6868 37.5968 13.0744 38.2034C11.4277 39.8326 8.60291 38.6731 8.60291 36.3689C8.60291 33.7447 12.1054 32.7923 13.4666 35.0318L11.4483 37.0568L10.2964 35.6772C10.1358 35.4849 9.84827 35.4571 9.65221 35.6162C9.46177 35.7789 9.43377 36.0637 9.59433 36.2561ZM14.1256 34.3734L14.8743 33.6226C15.2962 33.1992 15.9459 33.8335 15.524 34.2551L14.5625 35.2205C15.3522 37.4729 13.6719 39.8696 11.2243 39.8696C9.27324 39.8696 7.69001 38.3033 7.69001 36.3689C7.69001 34.4364 9.27138 32.8681 11.2243 32.8681C12.4266 32.87 13.489 33.4654 14.1256 34.3734ZM22.9993 36.2561L24.4724 38.0203C24.6572 38.2404 24.9765 38.233 25.1669 38.0296L27.2151 35.9731C27.3383 36.7628 27.0918 37.5968 26.4794 38.2034C24.8327 39.8326 22.0079 38.6731 22.0079 36.3689C22.0079 33.7447 25.5104 32.7923 26.8716 35.0318L24.8533 37.0568L23.7014 35.6772C23.5408 35.4849 23.2533 35.4571 23.0572 35.6162C22.8649 35.7789 22.8388 36.0637 22.9993 36.2561ZM27.5306 34.3734L28.2793 33.6226C28.7012 33.1992 29.351 33.8335 28.929 34.2551L27.9675 35.2205C28.7572 37.4711 27.0769 39.8696 24.6293 39.8696C22.6783 39.8696 21.095 38.3033 21.095 36.3689C21.095 34.4364 22.6764 32.8681 24.6293 32.8681C25.8298 32.87 26.8921 33.4654 27.5306 34.3734ZM22.9993 26.3531L24.4724 28.1174C24.6572 28.3375 24.9765 28.3301 25.1669 28.1267L27.2151 26.0702C27.3383 26.8599 27.0918 27.6939 26.4794 28.3004C24.8327 29.9315 22.0079 28.7702 22.0079 26.4659C22.0079 23.8417 25.5104 22.8893 26.8716 25.1289L24.8533 27.1539L23.7014 25.7742C23.5408 25.5819 23.2533 25.5542 23.0572 25.7132C22.8649 25.876 22.8388 26.1608 22.9993 26.3531ZM27.5306 24.4705L28.2793 23.7197C28.7012 23.2962 29.351 23.9305 28.929 24.3522L27.9675 25.3175C28.7572 27.5681 27.0769 29.9667 24.6293 29.9667C22.6783 29.9667 21.095 28.4003 21.095 26.466C21.095 24.5334 22.6764 22.9652 24.6293 22.9652C25.8298 22.9671 26.8921 23.5625 27.5306 24.4705ZM9.59433 26.3531L11.0674 28.1174C11.2522 28.3375 11.5715 28.3301 11.7619 28.1267L13.8101 26.0702C13.9333 26.8599 13.6868 27.6939 13.0744 28.3004C11.4277 29.9297 8.60291 28.7702 8.60291 26.4659C8.60291 23.8417 12.1054 22.8893 13.4666 25.1289L11.4483 27.1539L10.2964 25.7742C10.1358 25.5819 9.84827 25.5542 9.65221 25.7132C9.46177 25.876 9.43377 26.1608 9.59433 26.3531ZM14.1256 24.4705L14.8743 23.7197C15.2962 23.2962 15.9459 23.9305 15.524 24.3522L14.5625 25.3175C15.3522 27.57 13.6719 29.9667 11.2243 29.9667C9.27324 29.9667 7.69001 28.4003 7.69001 26.466C7.69001 24.5334 9.27138 22.9652 11.2243 22.9652C12.4266 22.9671 13.489 23.5625 14.1256 24.4705ZM5.14862 18.8448C4.54744 18.8448 4.54744 17.9386 5.14862 17.9386H16.1024C16.7036 17.9386 16.7036 18.8448 16.1024 18.8448H5.14862ZM5.14862 15.7638C4.54744 15.7638 4.54744 14.8576 5.14862 14.8576H16.1024C16.7036 14.8576 16.7036 15.7638 16.1024 15.7638H5.14862ZM5.14862 12.6847C4.54744 12.6847 4.54744 11.7785 5.14862 11.7785H16.1024C16.7036 11.7785 16.7036 12.6847 16.1024 12.6847H5.14862ZM5.14862 9.60375C4.54744 9.60375 4.54744 8.69756 5.14862 8.69756H16.1024C16.7036 8.69756 16.7036 9.60375 16.1024 9.60375H5.14862ZM1 41.6654V6.46195C1 4.61076 2.51976 3.09987 4.39239 3.09248L30.9563 3.00002C32.8476 2.99447 34.3692 4.49614 34.3692 6.36948V41.7505C34.3692 43.6239 32.8476 45.1255 30.9563 45.12L4.39431 45.0349C2.51981 45.0294 1 43.5166 1 41.6654Z"/>
</mask>
<path fill-rule="evenodd" clip-rule="evenodd" d="M1.91467 6.46133V41.6667C1.91467 43.0241 3.02926 44.1282 4.39407 44.1337L30.958 44.2188C32.347 44.2225 33.456 43.1295 33.456 41.7518V6.36887C33.456 4.9911 32.347 3.89631 30.9561 3.90189L4.3922 3.99436C3.0274 3.99806 1.91467 5.10397 1.91467 6.46133ZM9.59433 36.2561L11.0674 38.0203C11.2522 38.2404 11.5715 38.233 11.7619 38.0296L13.8101 35.9731C13.9333 36.7628 13.6868 37.5968 13.0744 38.2034C11.4277 39.8326 8.60291 38.6731 8.60291 36.3689C8.60291 33.7447 12.1054 32.7923 13.4666 35.0318L11.4483 37.0568L10.2964 35.6772C10.1358 35.4849 9.84827 35.4571 9.65221 35.6162C9.46177 35.7789 9.43377 36.0637 9.59433 36.2561ZM14.1256 34.3734L14.8743 33.6226C15.2962 33.1992 15.9459 33.8335 15.524 34.2551L14.5625 35.2205C15.3522 37.4729 13.6719 39.8696 11.2243 39.8696C9.27324 39.8696 7.69001 38.3033 7.69001 36.3689C7.69001 34.4364 9.27138 32.8681 11.2243 32.8681C12.4266 32.87 13.489 33.4654 14.1256 34.3734ZM22.9993 36.2561L24.4724 38.0203C24.6572 38.2404 24.9765 38.233 25.1669 38.0296L27.2151 35.9731C27.3383 36.7628 27.0918 37.5968 26.4794 38.2034C24.8327 39.8326 22.0079 38.6731 22.0079 36.3689C22.0079 33.7447 25.5104 32.7923 26.8716 35.0318L24.8533 37.0568L23.7014 35.6772C23.5408 35.4849 23.2533 35.4571 23.0572 35.6162C22.8649 35.7789 22.8388 36.0637 22.9993 36.2561ZM27.5306 34.3734L28.2793 33.6226C28.7012 33.1992 29.351 33.8335 28.929 34.2551L27.9675 35.2205C28.7572 37.4711 27.0769 39.8696 24.6293 39.8696C22.6783 39.8696 21.095 38.3033 21.095 36.3689C21.095 34.4364 22.6764 32.8681 24.6293 32.8681C25.8298 32.87 26.8921 33.4654 27.5306 34.3734ZM22.9993 26.3531L24.4724 28.1174C24.6572 28.3375 24.9765 28.3301 25.1669 28.1267L27.2151 26.0702C27.3383 26.8599 27.0918 27.6939 26.4794 28.3004C24.8327 29.9315 22.0079 28.7702 22.0079 26.4659C22.0079 23.8417 25.5104 22.8893 26.8716 25.1289L24.8533 27.1539L23.7014 25.7742C23.5408 25.5819 23.2533 25.5542 23.0572 25.7132C22.8649 25.876 22.8388 26.1608 22.9993 26.3531ZM27.5306 24.4705L28.2793 23.7197C28.7012 23.2962 29.351 23.9305 28.929 24.3522L27.9675 25.3175C28.7572 27.5681 27.0769 29.9667 24.6293 29.9667C22.6783 29.9667 21.095 28.4003 21.095 26.466C21.095 24.5334 22.6764 22.9652 24.6293 22.9652C25.8298 22.9671 26.8921 23.5625 27.5306 24.4705ZM9.59433 26.3531L11.0674 28.1174C11.2522 28.3375 11.5715 28.3301 11.7619 28.1267L13.8101 26.0702C13.9333 26.8599 13.6868 27.6939 13.0744 28.3004C11.4277 29.9297 8.60291 28.7702 8.60291 26.4659C8.60291 23.8417 12.1054 22.8893 13.4666 25.1289L11.4483 27.1539L10.2964 25.7742C10.1358 25.5819 9.84827 25.5542 9.65221 25.7132C9.46177 25.876 9.43377 26.1608 9.59433 26.3531ZM14.1256 24.4705L14.8743 23.7197C15.2962 23.2962 15.9459 23.9305 15.524 24.3522L14.5625 25.3175C15.3522 27.57 13.6719 29.9667 11.2243 29.9667C9.27324 29.9667 7.69001 28.4003 7.69001 26.466C7.69001 24.5334 9.27138 22.9652 11.2243 22.9652C12.4266 22.9671 13.489 23.5625 14.1256 24.4705ZM5.14862 18.8448C4.54744 18.8448 4.54744 17.9386 5.14862 17.9386H16.1024C16.7036 17.9386 16.7036 18.8448 16.1024 18.8448H5.14862ZM5.14862 15.7638C4.54744 15.7638 4.54744 14.8576 5.14862 14.8576H16.1024C16.7036 14.8576 16.7036 15.7638 16.1024 15.7638H5.14862ZM5.14862 12.6847C4.54744 12.6847 4.54744 11.7785 5.14862 11.7785H16.1024C16.7036 11.7785 16.7036 12.6847 16.1024 12.6847H5.14862ZM5.14862 9.60375C4.54744 9.60375 4.54744 8.69756 5.14862 8.69756H16.1024C16.7036 8.69756 16.7036 9.60375 16.1024 9.60375H5.14862ZM1 41.6654V6.46195C1 4.61076 2.51976 3.09987 4.39239 3.09248L30.9563 3.00002C32.8476 2.99447 34.3692 4.49614 34.3692 6.36948V41.7505C34.3692 43.6239 32.8476 45.1255 30.9563 45.12L4.39431 45.0349C2.51981 45.0294 1 43.5166 1 41.6654Z" fill="black"/>
<path fill-rule="evenodd" clip-rule="evenodd" d="M1.91467 6.46133V41.6667C1.91467 43.0241 3.02926 44.1282 4.39407 44.1337L30.958 44.2188C32.347 44.2225 33.456 43.1295 33.456 41.7518V6.36887C33.456 4.9911 32.347 3.89631 30.9561 3.90189L4.3922 3.99436C3.0274 3.99806 1.91467 5.10397 1.91467 6.46133ZM9.59433 36.2561L11.0674 38.0203C11.2522 38.2404 11.5715 38.233 11.7619 38.0296L13.8101 35.9731C13.9333 36.7628 13.6868 37.5968 13.0744 38.2034C11.4277 39.8326 8.60291 38.6731 8.60291 36.3689C8.60291 33.7447 12.1054 32.7923 13.4666 35.0318L11.4483 37.0568L10.2964 35.6772C10.1358 35.4849 9.84827 35.4571 9.65221 35.6162C9.46177 35.7789 9.43377 36.0637 9.59433 36.2561ZM14.1256 34.3734L14.8743 33.6226C15.2962 33.1992 15.9459 33.8335 15.524 34.2551L14.5625 35.2205C15.3522 37.4729 13.6719 39.8696 11.2243 39.8696C9.27324 39.8696 7.69001 38.3033 7.69001 36.3689C7.69001 34.4364 9.27138 32.8681 11.2243 32.8681C12.4266 32.87 13.489 33.4654 14.1256 34.3734ZM22.9993 36.2561L24.4724 38.0203C24.6572 38.2404 24.9765 38.233 25.1669 38.0296L27.2151 35.9731C27.3383 36.7628 27.0918 37.5968 26.4794 38.2034C24.8327 39.8326 22.0079 38.6731 22.0079 36.3689C22.0079 33.7447 25.5104 32.7923 26.8716 35.0318L24.8533 37.0568L23.7014 35.6772C23.5408 35.4849 23.2533 35.4571 23.0572 35.6162C22.8649 35.7789 22.8388 36.0637 22.9993 36.2561ZM27.5306 34.3734L28.2793 33.6226C28.7012 33.1992 29.351 33.8335 28.929 34.2551L27.9675 35.2205C28.7572 37.4711 27.0769 39.8696 24.6293 39.8696C22.6783 39.8696 21.095 38.3033 21.095 36.3689C21.095 34.4364 22.6764 32.8681 24.6293 32.8681C25.8298 32.87 26.8921 33.4654 27.5306 34.3734ZM22.9993 26.3531L24.4724 28.1174C24.6572 28.3375 24.9765 28.3301 25.1669 28.1267L27.2151 26.0702C27.3383 26.8599 27.0918 27.6939 26.4794 28.3004C24.8327 29.9315 22.0079 28.7702 22.0079 26.4659C22.0079 23.8417 25.5104 22.8893 26.8716 25.1289L24.8533 27.1539L23.7014 25.7742C23.5408 25.5819 23.2533 25.5542 23.0572 25.7132C22.8649 25.876 22.8388 26.1608 22.9993 26.3531ZM27.5306 24.4705L28.2793 23.7197C28.7012 23.2962 29.351 23.9305 28.929 24.3522L27.9675 25.3175C28.7572 27.5681 27.0769 29.9667 24.6293 29.9667C22.6783 29.9667 21.095 28.4003 21.095 26.466C21.095 24.5334 22.6764 22.9652 24.6293 22.9652C25.8298 22.9671 26.8921 23.5625 27.5306 24.4705ZM9.59433 26.3531L11.0674 28.1174C11.2522 28.3375 11.5715 28.3301 11.7619 28.1267L13.8101 26.0702C13.9333 26.8599 13.6868 27.6939 13.0744 28.3004C11.4277 29.9297 8.60291 28.7702 8.60291 26.4659C8.60291 23.8417 12.1054 22.8893 13.4666 25.1289L11.4483 27.1539L10.2964 25.7742C10.1358 25.5819 9.84827 25.5542 9.65221 25.7132C9.46177 25.876 9.43377 26.1608 9.59433 26.3531ZM14.1256 24.4705L14.8743 23.7197C15.2962 23.2962 15.9459 23.9305 15.524 24.3522L14.5625 25.3175C15.3522 27.57 13.6719 29.9667 11.2243 29.9667C9.27324 29.9667 7.69001 28.4003 7.69001 26.466C7.69001 24.5334 9.27138 22.9652 11.2243 22.9652C12.4266 22.9671 13.489 23.5625 14.1256 24.4705ZM5.14862 18.8448C4.54744 18.8448 4.54744 17.9386 5.14862 17.9386H16.1024C16.7036 17.9386 16.7036 18.8448 16.1024 18.8448H5.14862ZM5.14862 15.7638C4.54744 15.7638 4.54744 14.8576 5.14862 14.8576H16.1024C16.7036 14.8576 16.7036 15.7638 16.1024 15.7638H5.14862ZM5.14862 12.6847C4.54744 12.6847 4.54744 11.7785 5.14862 11.7785H16.1024C16.7036 11.7785 16.7036 12.6847 16.1024 12.6847H5.14862ZM5.14862 9.60375C4.54744 9.60375 4.54744 8.69756 5.14862 8.69756H16.1024C16.7036 8.69756 16.7036 9.60375 16.1024 9.60375H5.14862ZM1 41.6654V6.46195C1 4.61076 2.51976 3.09987 4.39239 3.09248L30.9563 3.00002C32.8476 2.99447 34.3692 4.49614 34.3692 6.36948V41.7505C34.3692 43.6239 32.8476 45.1255 30.9563 45.12L4.39431 45.0349C2.51981 45.0294 1 43.5166 1 41.6654Z" stroke="black" stroke-width="0.6" mask="url(#path-1-outside-1_5384_12318)"/>
<path d="M28 8C30.2091 8 32 6.20914 32 4C32 1.79086 30.2091 0 28 0C25.7909 0 24 1.79086 24 4C24 6.20914 25.7909 8 28 8Z" fill="#0022FF"/>
<path d="M36 13.5C36 15.985 36 18 28 18C20 18 20 15.985 20 13.5C20 11.015 23.582 9 28 9C32.418 9 36 11.015 36 13.5Z" fill="#0066FF"/>
</svg>
