<svg width="47" height="56" viewBox="0 0 47 56" fill="none" xmlns="http://www.w3.org/2000/svg">
<path d="M18.9552 30.2671L18.9552 30.2671C20.6072 30.2278 22.2441 30.8005 23.8208 31.9606L30.5342 31.963C30.5342 31.963 30.5342 31.963 30.5342 31.963C32.354 31.963 33.8847 33.2311 34.2868 34.9295L39.2679 30.059L18.9552 30.2671ZM18.9552 30.2671C17.2155 30.3089 15.4567 31.0305 13.7311 32.4014C13.7093 32.4166 13.6921 32.4339 13.6816 32.4444C13.6815 32.4444 13.6815 32.4445 13.6815 32.4445L9.49559 36.2548L8.07103 34.8302C7.90716 34.6664 7.68498 34.5747 7.45438 34.5747C7.22377 34.5747 7.00159 34.6664 6.83772 34.8302L1.14411 40.5238C0.98024 40.6877 0.888575 40.9099 0.888575 41.1405C0.888575 41.3711 0.980241 41.5933 1.14411 41.7571L1.14412 41.7572M18.9552 30.2671L1.14412 41.7572M1.14412 41.7572L14.777 55.3881C14.9465 55.5576 15.1714 55.6437 15.3936 55.6437C15.6158 55.6437 15.8408 55.5576 16.0103 55.3881C16.0103 55.3881 16.0103 55.3881 16.0103 55.3881L21.7039 49.697L21.7039 49.6969C21.8678 49.5331 21.9594 49.3109 21.9594 49.0803C21.9594 48.8497 21.8678 48.6275 21.7039 48.4636L19.9875 46.7472M1.14412 41.7572L19.9875 46.7472M19.9875 46.7472L21.0995 45.6374M19.9875 46.7472L21.0995 45.6374M21.0995 45.6374L33.2063 45.6302C33.2064 45.6302 33.2064 45.6302 33.2064 45.6302C34.6698 45.6302 35.9455 45.11 36.9912 44.0866L45.1684 36.0867L45.1684 36.0867C46.8308 34.4592 46.8606 31.7837 45.2354 30.1236C43.6079 28.4613 40.9305 28.4314 39.268 30.0589L21.0995 45.6374ZM35.7692 42.8369L35.7693 42.8368L43.9465 34.839C44.9203 33.8836 44.9387 32.3165 43.9885 31.343C43.0357 30.3694 41.4659 30.3509 40.4925 31.3036L40.4924 31.3036L33.8298 37.8188C33.1501 38.9268 31.929 39.6677 30.5366 39.6677H20.7387C20.2582 39.6677 19.8665 39.2788 19.8665 38.7955C19.8665 38.315 20.2553 37.9233 20.7387 37.9233H30.5341C31.3116 37.9233 31.9906 37.5002 32.3568 36.8737L32.3592 36.8697C32.3592 36.8695 32.3593 36.8694 32.3594 36.8692C32.3607 36.8667 32.3643 36.8593 32.3695 36.8508C32.4589 36.6923 32.5273 36.5277 32.5729 36.3592C32.573 36.3588 32.5731 36.3585 32.5732 36.3581L32.5763 36.3457L32.5799 36.3311L32.5808 36.3275L32.5809 36.3275C32.5937 36.2825 32.6026 36.2366 32.6123 36.1834C32.6194 36.1428 32.6262 36.1022 32.6306 36.0624L32.6376 35.9988C32.6425 35.936 32.6469 35.8777 32.6469 35.8179C32.6469 34.6536 31.6987 33.7076 30.5366 33.7076H23.5273C23.3333 33.7076 23.1443 33.6438 22.991 33.524C21.6493 32.4807 20.3172 31.9846 18.9731 32.0222C17.6288 32.0598 16.2568 32.6315 14.8361 33.7539L10.7314 37.491L18.7517 45.5137L20.1217 44.146L20.1218 44.146M35.7692 42.8369L20.2005 44.2248L20.1218 44.146M35.7692 42.8369C35.0487 43.5433 34.2143 43.8832 33.2064 43.8832H33.2063L20.7383 43.8905C20.7383 43.8905 20.7383 43.8905 20.7383 43.8905C20.5077 43.8905 20.2856 43.9821 20.1218 44.146M35.7692 42.8369L20.1218 44.146M15.3943 53.5356L2.99694 41.1407L7.4548 36.6829L19.8521 49.0801L15.3943 53.5356Z" fill="black" stroke="black" stroke-width="0.22285"/>
<path fill-rule="evenodd" clip-rule="evenodd" d="M19.992 1.27325C18.7188 2.54505 18.7188 4.59471 18.7188 8.69113V20.2793C18.7188 24.3757 18.7188 26.4254 19.992 27.6972C21.2638 28.9704 23.3135 28.9704 27.4099 28.9704H30.3069C34.4033 28.9704 36.453 28.9704 37.7248 27.6972C38.9981 26.4254 38.9981 24.3757 38.9981 20.2793V8.69113C38.9981 4.59471 38.9981 2.54505 37.7248 1.27325C36.453 -8.63387e-08 34.4033 0 30.3069 0H27.4099C23.3135 0 21.2638 -8.63387e-08 19.992 1.27325ZM23.4264 21.7278C23.4264 21.4397 23.5409 21.1634 23.7446 20.9596C23.9484 20.7559 24.2247 20.6414 24.5128 20.6414H28.8584C29.1465 20.6414 29.4229 20.7559 29.6266 20.9596C29.8303 21.1634 29.9448 21.4397 29.9448 21.7278C29.9448 22.016 29.8303 22.2923 29.6266 22.496C29.4229 22.6998 29.1465 22.8142 28.8584 22.8142H24.5128C24.2247 22.8142 23.9484 22.6998 23.7446 22.496C23.5409 22.2923 23.4264 22.016 23.4264 21.7278ZM24.5128 14.8474C24.2247 14.8474 23.9484 14.9618 23.7446 15.1656C23.5409 15.3693 23.4264 15.6456 23.4264 15.9337C23.4264 16.2219 23.5409 16.4982 23.7446 16.7019C23.9484 16.9057 24.2247 17.0201 24.5128 17.0201H33.204C33.4921 17.0201 33.7684 16.9057 33.9722 16.7019C34.1759 16.4982 34.2904 16.2219 34.2904 15.9337C34.2904 15.6456 34.1759 15.3693 33.9722 15.1656C33.7684 14.9618 33.4921 14.8474 33.204 14.8474H24.5128ZM23.4264 10.1397C23.4264 9.85153 23.5409 9.5752 23.7446 9.37146C23.9484 9.16772 24.2247 9.05326 24.5128 9.05326H33.204C33.4921 9.05326 33.7684 9.16772 33.9722 9.37146C34.1759 9.5752 34.2904 9.85153 34.2904 10.1397C34.2904 10.4278 34.1759 10.7041 33.9722 10.9079C33.7684 11.1116 33.4921 11.226 33.204 11.226H24.5128C24.2247 11.226 23.9484 11.1116 23.7446 10.9079C23.5409 10.7041 23.4264 10.4278 23.4264 10.1397Z" fill="#0055FF"/>
<path opacity="0.5" d="M19.061 2.98047C18.7206 4.25951 18.7206 6.04989 18.7206 8.69054V20.2787C18.7206 22.9194 18.7206 24.7083 19.061 25.9888L18.7206 25.9627C17.3083 25.8237 16.358 25.5093 15.6483 24.7996C14.375 23.5278 14.375 21.4781 14.375 17.3817V11.5876C14.375 7.48972 14.375 5.44151 15.6483 4.16971C16.358 3.45993 17.3083 3.1456 18.7206 3.00654L19.061 2.98047ZM38.6595 25.9888C38.9999 24.7083 38.9999 22.9179 38.9999 20.2787V8.69054C38.9999 6.04989 38.9999 4.25951 38.6595 2.98047L38.9999 3.00654C40.4122 3.1456 41.3624 3.45993 42.0722 4.16971C43.3454 5.44151 43.3454 7.48827 43.3454 11.5861V17.3802C43.3454 21.4795 43.3454 23.5263 42.0722 24.7996C41.3624 25.5093 40.4122 25.8237 38.9999 25.9627L38.6595 25.9888Z" fill="#000FB1"/>
</svg>
