<svg width="174" height="43" viewBox="0 0 174 43" fill="none" xmlns="http://www.w3.org/2000/svg">
<path d="M13.0419 3.77076C-10.4393 20.0467 5.03912 37.6325 14.7456 42.0798C16.1353 42.7165 17.6732 42.8683 19.2019 42.8533L98.061 42.0804C102.64 42.0355 107.001 40.118 110.13 36.7739L118.463 27.8671C119.335 26.935 120.5 26.3298 121.764 26.1522L125.899 25.5715C127.926 25.2868 129.947 26.1342 131.165 27.7797L136.089 34.4351C139.248 38.7032 144.078 41.4194 149.366 41.9003L150.574 42.0101L152.252 41.8547C157.282 41.3888 162.312 39.8374 165.888 36.2682C177.524 24.6522 173.292 12.0057 165.978 4.84234C162.958 1.8845 158.691 0.819842 154.477 0.477786L150.97 0.192993L149.267 0.386489C144.038 0.980685 139.305 3.76059 136.239 8.03811L131.078 15.2398C129.91 16.8696 127.957 17.748 125.963 17.5412L121.887 17.1185C120.548 16.9797 119.304 16.3621 118.385 15.3792L110.197 6.62707C107.029 3.24131 102.6 1.31975 97.9633 1.31975H21.4394C18.4656 1.31975 15.486 2.07661 13.0419 3.77076Z" fill="white"/>
</svg>
